<?xml version="1.0" encoding="utf-8"?>
<svg viewBox="0 0 500 300" xmlns="http://www.w3.org/2000/svg" xmlns:xlink="http://www.w3.org/1999/xlink" xmlns:bx="https://boxy-svg.com">
  <defs>
    <linearGradient id="gradient-1" bx:pinned="true">
      <stop offset="0" style="stop-color: rgb(243, 213, 119);"/>
      <stop offset="1" style="stop-color: rgb(188, 76, 78);"/>
    </linearGradient>
    <linearGradient id="gradient-1-0" gradientUnits="userSpaceOnUse" x1="202.743" y1="128.251" x2="202.743" y2="260.846" gradientTransform="matrix(0.016466, 2.088577, -2.481335, 0.019566, 735.407471, -247.074799)" xlink:href="#gradient-1"/>
  </defs>
  <path style="paint-order: fill; fill: url(#gradient-1-0);" d="M 265.792 39.032 C 343.474 38.194 345.179 132.697 293.476 158.306 L 319.442 221.643 C 327.098 212.096 338.86 205.984 352.049 205.984 C 374.985 205.984 393.603 224.469 393.819 247.356 L 404.6 247.356 C 421.904 247.356 435.93 233.329 435.93 216.028 L 435.93 147.278 C 435.93 129.974 421.904 115.948 404.6 115.948 L 354.614 115.948 C 354.62 115.551 354.622 115.154 354.622 114.757 C 354.622 58.33 307.865 12.587 250.19 12.587 C 192.513 12.587 145.758 58.33 145.758 114.757 C 145.758 115.154 145.76 115.551 145.764 115.948 L 94.26 115.948 C 76.956 115.948 62.93 129.974 62.93 147.278 L 62.93 216.028 C 62.93 233.329 76.956 247.356 94.26 247.356 L 123.047 247.356 L 123.047 247.354 C 122.883 224.283 141.449 205.448 164.52 205.282 C 187.59 205.119 206.425 223.685 206.591 246.757 C 206.593 246.957 206.593 247.156 206.591 247.356 L 242.927 247.356 L 242.724 39.168 L 265.792 39.032 Z M 330.197 247.876 L 310.275 247.647 C 310.275 247.683 310.275 247.721 310.275 247.758 C 310.275 270.829 328.979 289.53 352.049 289.53 C 375.119 289.53 393.821 270.829 393.821 247.758 C 393.821 247.623 393.821 247.489 393.819 247.356 L 329.984 247.356 L 330.197 247.876 Z M 299.001 247.515 L 298.939 247.356 L 310.277 247.356 C 310.369 237.63 313.783 228.7 319.442 221.643 L 329.984 247.356 L 310.277 247.356 C 310.275 247.453 310.275 247.549 310.275 247.647 L 299.001 247.515 Z M 267.388 164.609 C 266.969 164.621 266.546 164.631 266.123 164.635 L 267.071 247.214 L 260.991 247.356 L 298.939 247.356 L 267.388 164.609 Z M 242.927 247.778 L 242.927 247.356 L 260.991 247.356 L 242.927 247.778 Z M 206.591 247.356 L 123.047 247.356 C 123.214 270.426 142.048 288.992 165.116 288.826 C 187.987 288.663 206.433 270.152 206.591 247.356 Z"/>
</svg>