<?xml version="1.0" encoding="utf-8"?>
<svg viewBox="0 0 392 280" xmlns="http://www.w3.org/2000/svg" xmlns:xlink="http://www.w3.org/1999/xlink" xmlns:bx="https://boxy-svg.com">
  <defs>
    <linearGradient id="gradient-1" bx:pinned="true">
      <stop offset="0" style="stop-color: rgb(243, 213, 119);"/>
      <stop offset="1" style="stop-color: rgb(188, 76, 78);"/>
    </linearGradient>
    <linearGradient id="gradient-1-0" gradientUnits="userSpaceOnUse" x1="202.743" y1="128.251" x2="202.743" y2="260.846" gradientTransform="matrix(0.016466, 2.088577, -2.481335, 0.019566, 672.407471, -258.074799)" xlink:href="#gradient-1"/>
  </defs>
  <path style="paint-order: fill; fill: url(#gradient-1-0);" d="M 202.792 28.032 C 280.474 27.194 282.179 121.697 230.476 147.306 L 256.442 210.643 C 264.098 201.096 275.86 194.984 289.049 194.984 C 311.985 194.984 330.603 213.469 330.819 236.356 L 341.6 236.356 C 358.904 236.356 372.93 222.329 372.93 205.028 L 372.93 136.278 C 372.93 118.974 358.904 104.948 341.6 104.948 L 291.614 104.948 C 291.62 104.551 291.622 104.154 291.622 103.757 C 291.622 47.33 244.865 1.587 187.19 1.587 C 129.513 1.587 82.758 47.33 82.758 103.757 C 82.758 104.154 82.76 104.551 82.764 104.948 L 31.26 104.948 C 13.956 104.948 -0.07 118.974 -0.07 136.278 L -0.07 205.028 C -0.07 222.329 13.956 236.356 31.26 236.356 L 60.047 236.356 L 60.047 236.354 C 59.883 213.283 78.449 194.448 101.52 194.282 C 124.59 194.119 143.425 212.685 143.591 235.757 C 143.593 235.957 143.593 236.156 143.591 236.356 L 179.927 236.356 L 179.724 28.168 L 202.792 28.032 Z M 267.197 236.876 L 247.275 236.647 C 247.275 236.683 247.275 236.721 247.275 236.758 C 247.275 259.829 265.979 278.53 289.049 278.53 C 312.119 278.53 330.821 259.829 330.821 236.758 C 330.821 236.623 330.821 236.489 330.819 236.356 L 266.984 236.356 L 267.197 236.876 Z M 236.001 236.515 L 235.939 236.356 L 247.277 236.356 C 247.369 226.63 250.783 217.7 256.442 210.643 L 266.984 236.356 L 247.277 236.356 C 247.275 236.453 247.275 236.549 247.275 236.647 L 236.001 236.515 Z M 204.388 153.609 C 203.969 153.621 203.546 153.631 203.123 153.635 L 204.071 236.214 L 197.991 236.356 L 235.939 236.356 L 204.388 153.609 Z M 179.927 236.778 L 179.927 236.356 L 197.991 236.356 L 179.927 236.778 Z M 143.591 236.356 L 60.047 236.356 C 60.214 259.426 79.048 277.992 102.116 277.826 C 124.987 277.663 143.433 259.152 143.591 236.356 Z"/>
</svg>